<?xml version="1.0" ?><svg xmlns="http://www.w3.org/2000/svg" xmlns:xlink="http://www.w3.org/1999/xlink" version="1.1" viewBox="0 0 512 512" style="enable-background:new 0 0 512 512;" xml:space="preserve"><g id="_x30_9_Digital_Library"><g><rect x="175.244" y="64.365" width="20.91" height="9.614"/><path d="M472.312,64.365H359.59l2.836,9.614h109.886c10.623,0,19.228,8.605,19.228,19.228v251.162H20.46V93.207    c0-10.623,8.653-19.228,19.228-19.228h52.636v-9.614H39.688c-15.863,0-28.842,12.931-28.842,28.842v292.935    c0,15.911,12.979,28.842,28.842,28.842h432.624c15.911,0,28.842-12.931,28.842-28.842V93.207    C501.154,77.296,488.223,64.365,472.312,64.365z M276.433,384.474h-40.831c-2.657,0-4.807-2.152-4.807-4.807    s2.15-4.807,4.807-4.807h40.831c2.657,0,4.807,2.152,4.807,4.807S279.09,384.474,276.433,384.474z"/><path d="M383.095,480.838h-36.196v-56.241h-181.75v56.241h-36.196c-2.692,0-4.807,2.163-4.807,4.807    c0,2.644,2.115,4.807,4.807,4.807h254.143c2.644,0,4.807-2.163,4.807-4.807C387.902,483.001,385.739,480.838,383.095,480.838z"/><path d="M269.429,25.165c0-1.995-1.62-3.617-3.615-3.617h-56.444c-1.995,0-3.619,1.622-3.619,3.617v83.398h63.678V25.165z"/><path d="M302.965,131.117l61.036-18.147l-23.769-79.938c-0.272-0.929-0.892-1.692-1.742-2.152c-0.84-0.46-1.826-0.563-2.751-0.286    l-54.106,16.087c-1.911,0.568-3.004,2.587-2.436,4.499L302.965,131.117z"/><rect x="205.751" y="118.177" width="63.678" height="36.428"/><path d="M335.093,260.848h-69.278h-56.444h-47.379h-56.444h-23.03c-5.844,0-10.6,4.753-10.6,10.595s4.755,10.595,10.6,10.595    h347.001c5.844,0,10.595-4.753,10.595-10.595s-4.751-10.595-10.595-10.595h-29.231H335.093z"/><path d="M379.864,166.318l-61.037,18.147l19.852,66.769h60.908l1.605-0.479c0.929-0.277,1.69-0.897,2.155-1.746    c0.46-0.847,0.559-1.824,0.286-2.748L379.864,166.318z"/><polygon points="366.741,122.186 305.705,140.331 316.087,175.25 377.124,157.105 368.829,129.207   "/><rect x="101.928" y="67.589" width="63.678" height="137.603"/><path d="M105.547,251.234h56.444c1.995,0,3.615-1.622,3.615-3.617v-32.811h-63.678v32.811    C101.928,249.612,103.552,251.234,105.547,251.234z"/><path d="M165.606,25.165c0-1.995-1.62-3.617-3.615-3.617h-56.444c-1.995,0-3.619,1.622-3.619,3.617v32.811h63.678V25.165z"/><path d="M209.371,251.234h56.444c1.995,0,3.615-1.622,3.615-3.617v-83.398h-63.678v83.398    C205.751,249.612,207.376,251.234,209.371,251.234z"/></g></g><g id="Layer_1"/></svg>