<?xml version="1.0" ?><svg xmlns="http://www.w3.org/2000/svg" xmlns:xlink="http://www.w3.org/1999/xlink" version="1.1" id="Layer_1" viewBox="0 0 32 32" style="enable-background:new 0 0 32 32;" xml:space="preserve"><style type="text/css">
	.st0{fill:none;stroke:#000000;stroke-linecap:round;stroke-linejoin:round;stroke-miterlimit:10;}
</style><g><circle class="st0" cx="25.2" cy="6.7" r="5.7"/><path class="st0" d="M28.5,11.2v10.6H2.9V7.1c0-0.8,0.7-1.5,1.5-1.5h15.4c-0.1,0.3-0.1,0.6-0.1,0.9v0.1c0,0.5,0.1,1.1,0.2,1.5   C20,8.5,20.2,9,20.4,9.3s0.4,0.6,0.7,0.9c0.3,0.3,0.6,0.6,0.9,0.8c0.1,0.1,0.2,0.1,0.3,0.2c0.9,0.6,1.9,0.9,3.1,0.9   c0.4,0,0.8,0,1.2-0.1C27.2,12,27.9,11.7,28.5,11.2C28.5,11.3,28.5,11.3,28.5,11.2z"/><path class="st0" d="M29,31H2.5c-0.8,0-1.5-0.7-1.3-1.5L3,21.9h25.6l1.8,7.6C30.4,30.3,29.8,31,29,31z"/><path class="st0" d="M19.3,28.5h-7.2c-0.5,0-0.9,0.3-1.1,0.7L10.4,31h10.7l-0.7-1.8C20.3,28.8,19.8,28.5,19.3,28.5z"/><g><circle class="st0" cx="16.4" cy="13.5" r="2.6"/><circle class="st0" cx="8.3" cy="9.6" r="1.5"/><circle class="st0" cx="12.4" cy="17.8" r="1.5"/><circle class="st0" cx="23.2" cy="17.8" r="1.5"/><line class="st0" x1="20.8" y1="10.9" x2="18.7" y2="12.4"/><line class="st0" x1="21.9" y1="16.9" x2="18.7" y2="14.6"/><line class="st0" x1="14.8" y1="15.5" x2="13.5" y2="16.8"/><line class="st0" x1="14.1" y1="12.4" x2="9.7" y2="10.3"/></g><g><path class="st0" d="M23.1,5.7c0.1,0.6,0.6,1,1.3,1H25"/><path class="st0" d="M26.8,8.1C26.8,8.1,26.8,8,26.8,8.1c0-0.8-0.6-1.4-1.3-1.4H25"/><g><path class="st0" d="M23.1,5.7c0-0.1,0-0.2,0-0.3c0-0.7,0.6-1.3,1.3-1.3h0.9h0.1h1.5"/><path class="st0" d="M23,9.3h2.2h0.3c0.7,0,1.2-0.5,1.3-1.2"/><line class="st0" x1="25.2" y1="2.7" x2="25.2" y2="4.1"/><line class="st0" x1="25.2" y1="9.3" x2="25.2" y2="10.7"/></g></g></g></svg>