<?xml version="1.0" encoding="UTF-8" standalone="no"?>
<svg
   sodipodi:docname="8. Digital Marketing.svg"
   inkscape:version="1.1 (1:1.1+202106031931+af4d65493e)"
   id="svg831"
   version="1.1"
   viewBox="0 0 22.577778 22.577778"
   height="64pt"
   width="64pt"
   inkscape:export-filename="/media/taufikramadhan/Data/Tr Design Studio/Project Design/TR Creative Design/Icon Design/Project Hiring/Icon Icons/007 - Design And Development/Send/1 - Line/SVG/8. Digital Marketing.png"
   inkscape:export-xdpi="576"
   inkscape:export-ydpi="576"
   xmlns:inkscape="http://www.inkscape.org/namespaces/inkscape"
   xmlns:sodipodi="http://sodipodi.sourceforge.net/DTD/sodipodi-0.dtd"
   xmlns="http://www.w3.org/2000/svg"
   xmlns:svg="http://www.w3.org/2000/svg"
   xmlns:rdf="http://www.w3.org/1999/02/22-rdf-syntax-ns#"
   xmlns:cc="http://creativecommons.org/ns#"
   xmlns:dc="http://purl.org/dc/elements/1.1/">
  <defs
     id="defs825">
    <pattern
       y="0"
       x="0"
       height="6"
       width="6"
       patternUnits="userSpaceOnUse"
       id="EMFhbasepattern" />
    <pattern
       y="0"
       x="0"
       height="6"
       width="6"
       patternUnits="userSpaceOnUse"
       id="EMFhbasepattern-9" />
    <pattern
       y="0"
       x="0"
       height="6"
       width="6"
       patternUnits="userSpaceOnUse"
       id="EMFhbasepattern-0" />
    <pattern
       y="0"
       x="0"
       height="6"
       width="6"
       patternUnits="userSpaceOnUse"
       id="EMFhbasepattern-7" />
    <pattern
       y="0"
       x="0"
       height="6"
       width="6"
       patternUnits="userSpaceOnUse"
       id="EMFhbasepattern-2" />
    <pattern
       y="0"
       x="0"
       height="6"
       width="6"
       patternUnits="userSpaceOnUse"
       id="EMFhbasepattern-98" />
    <pattern
       y="0"
       x="0"
       height="6"
       width="6"
       patternUnits="userSpaceOnUse"
       id="EMFhbasepattern-6" />
    <pattern
       y="0"
       x="0"
       height="6"
       width="6"
       patternUnits="userSpaceOnUse"
       id="EMFhbasepattern-01" />
    <pattern
       y="0"
       x="0"
       height="6"
       width="6"
       patternUnits="userSpaceOnUse"
       id="EMFhbasepattern-07" />
    <pattern
       y="0"
       x="0"
       height="6"
       width="6"
       patternUnits="userSpaceOnUse"
       id="EMFhbasepattern-8" />
    <pattern
       y="0"
       x="0"
       height="6"
       width="6"
       patternUnits="userSpaceOnUse"
       id="EMFhbasepattern-4" />
    <pattern
       y="0"
       x="0"
       height="6"
       width="6"
       patternUnits="userSpaceOnUse"
       id="EMFhbasepattern-40" />
    <pattern
       y="0"
       x="0"
       height="6"
       width="6"
       patternUnits="userSpaceOnUse"
       id="EMFhbasepattern-08" />
    <pattern
       y="0"
       x="0"
       height="6"
       width="6"
       patternUnits="userSpaceOnUse"
       id="EMFhbasepattern-04" />
    <pattern
       y="0"
       x="0"
       height="6"
       width="6"
       patternUnits="userSpaceOnUse"
       id="EMFhbasepattern-014" />
    <pattern
       y="0"
       x="0"
       height="6"
       width="6"
       patternUnits="userSpaceOnUse"
       id="EMFhbasepattern-27" />
    <pattern
       y="0"
       x="0"
       height="6"
       width="6"
       patternUnits="userSpaceOnUse"
       id="EMFhbasepattern-09" />
    <pattern
       y="0"
       x="0"
       height="6"
       width="6"
       patternUnits="userSpaceOnUse"
       id="EMFhbasepattern-5" />
    <pattern
       y="0"
       x="0"
       height="6"
       width="6"
       patternUnits="userSpaceOnUse"
       id="EMFhbasepattern-018" />
  </defs>
  <sodipodi:namedview
     inkscape:document-rotation="0"
     inkscape:snap-global="true"
     inkscape:snap-nodes="true"
     inkscape:bbox-nodes="true"
     inkscape:snap-bbox="true"
     showguides="true"
     inkscape:snap-midpoints="true"
     inkscape:snap-smooth-nodes="true"
     inkscape:snap-intersection-paths="true"
     inkscape:object-paths="true"
     inkscape:showpageshadow="false"
     inkscape:pagecheckerboard="true"
     inkscape:window-maximized="1"
     inkscape:window-y="31"
     inkscape:window-x="0"
     inkscape:window-height="705"
     inkscape:window-width="1366"
     units="pt"
     showgrid="false"
     inkscape:current-layer="layer1"
     inkscape:document-units="pt"
     inkscape:cy="42.666667"
     inkscape:cx="39.524548"
     inkscape:zoom="6.046875"
     inkscape:pageshadow="2"
     inkscape:pageopacity="0.0"
     borderopacity="1.0"
     bordercolor="#666666"
     pagecolor="#ffffff"
     id="base">
    <inkscape:grid
       id="grid1378"
       type="xygrid" />
    <sodipodi:guide
       inkscape:locked="false"
       id="guide1380"
       orientation="78.000048,0"
       position="0.97013831,21.607643" />
    <sodipodi:guide
       inkscape:locked="false"
       id="guide1382"
       orientation="0,78.000005"
       position="0.97013831,0.97013129" />
    <sodipodi:guide
       inkscape:locked="false"
       id="guide1384"
       orientation="-78.000048,0"
       position="21.607639,0.97013129" />
    <sodipodi:guide
       inkscape:locked="false"
       id="guide1386"
       orientation="0,-78.000005"
       position="21.607639,21.607643" />
  </sodipodi:namedview>
  <metadata
     id="metadata828">
    <rdf:RDF>
      <cc:Work
         rdf:about="">
        <dc:format>image/svg+xml</dc:format>
        <dc:type
           rdf:resource="http://purl.org/dc/dcmitype/StillImage" />
      </cc:Work>
    </rdf:RDF>
  </metadata>
  <g
     transform="translate(0,-274.42223)"
     id="layer1"
     inkscape:groupmode="layer"
     inkscape:label="Icon">
    <path
       id="path1044"
       style="color:#000000;font-style:normal;font-variant:normal;font-weight:normal;font-stretch:normal;font-size:medium;line-height:normal;font-family:sans-serif;font-variant-ligatures:normal;font-variant-position:normal;font-variant-caps:normal;font-variant-numeric:normal;font-variant-alternates:normal;font-variant-east-asian:normal;font-feature-settings:normal;font-variation-settings:normal;text-indent:0;text-align:start;text-decoration:none;text-decoration-line:none;text-decoration-style:solid;text-decoration-color:#000000;letter-spacing:normal;word-spacing:normal;text-transform:none;writing-mode:lr-tb;direction:ltr;text-orientation:mixed;dominant-baseline:auto;baseline-shift:baseline;text-anchor:start;white-space:normal;shape-padding:0;shape-margin:0;inline-size:0;clip-rule:nonzero;display:inline;overflow:visible;visibility:visible;opacity:1;isolation:auto;mix-blend-mode:normal;color-interpolation:sRGB;color-interpolation-filters:linearRGB;solid-color:#000000;solid-opacity:1;vector-effect:none;fill:#000000;fill-opacity:1;fill-rule:nonzero;stroke:none;stroke-width:0.675385;stroke-linecap:round;stroke-linejoin:round;stroke-miterlimit:4;stroke-dasharray:none;stroke-dashoffset:0;stroke-opacity:1;color-rendering:auto;image-rendering:auto;shape-rendering:auto;text-rendering:auto;enable-background:accumulate;stop-color:#000000;stop-opacity:1"
       d="m 5.4670221,287.14569 c -6.752e-4,0.18649 0.1498714,0.33827 0.3363719,0.339 0.1875343,7.4e-4 0.3397452,-0.15147 0.3390126,-0.339 v -8.97655 H 16.736833 v 2.56039 c -6.75e-4,0.18651 0.149871,0.33829 0.336376,0.33902 0.187533,7.4e-4 0.339741,-0.15149 0.339008,-0.33902 -0.0031,-0.98353 0.0063,-1.96747 -0.004,-2.95082 -0.04342,-1.26386 -1.085123,-2.28205 -2.359228,-2.28205 l -7.2188397,-4e-5 c -1.2749902,0 -2.3171689,1.01961 -2.3592248,2.2847 -0.00842,3.1212 -0.00396,6.24297 -0.00396,9.36437 z m 2.3631763,-10.97302 h 7.2188296 c 0.810178,0 1.479182,0.56307 1.645587,1.32108 H 6.1846118 c 0.1664074,-0.75801 0.8354129,-1.32108 1.6455866,-1.32108 z m 2.9336996,0.33636 c -0.187533,-6.7e-4 -0.339746,0.15149 -0.339009,0.33902 6.75e-4,0.18651 0.152508,0.3371 0.339009,0.33637 h 1.35143 c 0.18547,-6.8e-4 0.335649,-0.1509 0.336372,-0.33637 6.75e-4,-0.1865 -0.149868,-0.33828 -0.336372,-0.33902 z m -3.7139513,2.19633 c -0.186503,-6.8e-4 -0.3382826,0.14986 -0.3390114,0.33637 -6.764e-4,0.18753 0.1514784,0.33974 0.3390114,0.33901 h 5.0653813 c 0.186504,-6.7e-4 0.337102,-0.1525 0.336372,-0.33901 -6.76e-4,-0.18548 -0.150902,-0.33565 -0.336372,-0.33637 z m 0.3363719,1.35076 c -0.1854743,6.8e-4 -0.3356483,0.1509 -0.3363719,0.33637 3.382e-4,0.18573 0.150641,0.33631 0.3363719,0.33704 h 0.6753845 c 0.1867608,7.4e-4 0.3386476,-0.15027 0.3390126,-0.33704 -6.752e-4,-0.18649 -0.1525083,-0.3371 -0.3390126,-0.33637 z m 2.0268108,0 c -0.1854743,6.8e-4 -0.3356482,0.1509 -0.3363719,0.33637 3.382e-4,0.18573 0.1506411,0.33631 0.3363719,0.33704 h 1.0117596 c 0.186757,7.4e-4 0.338645,-0.15027 0.339009,-0.33704 -6.76e-4,-0.18649 -0.152509,-0.3371 -0.339009,-0.33637 z m 2.3631856,0 c -0.185473,6.8e-4 -0.335648,0.1509 -0.336371,0.33637 3.37e-4,0.18573 0.150642,0.33631 0.336371,0.33704 h 0.339013 c 0.185731,-7.4e-4 0.33601,-0.15131 0.336372,-0.33704 -6.76e-4,-0.18547 -0.150898,-0.33564 -0.336372,-0.33637 z m 7.408779,0.99198 -0.359457,0.62063 c -0.09367,0.16137 -0.03874,0.36812 0.122679,0.4617 0.162174,0.0942 0.370077,0.0383 0.46301,-0.1247 l 0.356819,-0.62065 c 0.09378,-0.16118 0.03916,-0.36788 -0.122015,-0.46168 -0.204308,-0.0974 -0.352662,-0.0422 -0.461031,0.1247 z m -3.228518,0.29152 c -0.134307,-0.0102 -0.272762,0.019 -0.396393,0.0904 l -0.620641,0.35879 c -0.329685,0.19035 -0.446906,0.62272 -0.256569,0.9524 l 0.06134,0.10683 -2.512243,2.98976 -1.188518,0.68726 c -0.501317,0.28944 -0.675934,0.93979 -0.386499,1.44112 l 0.358798,0.62064 c 0.28945,0.50127 0.939778,0.67597 1.441129,0.38651 l 0.0963,-0.0554 0.549411,0.94976 c 0.09288,0.16174 0.299296,0.21755 0.461027,0.1247 0.160782,-0.0938 0.215356,-0.29999 0.122016,-0.46103 l -0.547429,-0.95109 0.505876,-0.29217 3.849162,-0.68199 0.06134,0.10555 c 0.190347,0.32969 0.62271,0.44692 0.952396,0.25657 l 0.62064,-0.3588 c 0.3297,-0.19035 0.444289,-0.6227 0.253931,-0.9524 l -0.737384,-1.27756 c 0.345547,-0.2489 0.577065,-0.52479 0.682642,-0.83104 0.132476,-0.38429 0.04544,-0.77791 -0.137188,-1.0942 -0.182618,-0.31629 -0.480816,-0.58874 -0.879846,-0.66615 -0.318008,-0.0616 -0.671443,7.4e-4 -1.059246,0.17544 l -0.738048,-1.27958 c -0.118965,-0.20606 -0.332157,-0.32812 -0.556002,-0.34429 z m -8.9066293,0.0653 c -0.187533,-7.5e-4 -0.3397452,0.15147 -0.3390114,0.339 6.752e-4,0.18651 0.1525084,0.3371 0.3390114,0.33637 h 1.0117564 c 0.1865043,7.5e-4 0.3382864,-0.14986 0.3390126,-0.33637 6.752e-4,-0.18753 -0.1514783,-0.33974 -0.3390126,-0.339 z m 2.193679,0 c -0.1865018,7.4e-4 -0.337102,0.15251 -0.3363719,0.339 6.751e-4,0.18548 0.1508976,0.33566 0.3363719,0.33637 h 2.8717023 c 0.185474,-7e-4 0.335649,-0.15089 0.336372,-0.33637 6.75e-4,-0.18649 -0.149872,-0.33827 -0.336372,-0.339 z m 9.5549783,5.59104 c 0.0078,0.0135 0.0056,0.0199 -0.0079,0.0277 l -0.622619,0.3588 c -0.01358,0.008 -0.01986,0.006 -0.0277,-0.008 -0.896281,-1.5539 -1.794623,-3.10787 -2.69231,-4.66173 l -0.179399,-0.31132 c -0.0078,-0.0135 -0.0063,-0.0199 0.0073,-0.0277 l 0.620641,-0.3588 c 0.01408,-0.008 0.02154,-0.008 0.02593,1.2e-4 z m 1.562478,-4.60897 -0.777617,0.4485 c -0.162132,0.0929 -0.217996,0.29981 -0.124658,0.46168 0.09313,0.1619 0.299982,0.21746 0.46169,0.12393 l 0.777613,-0.44849 c 0.161738,-0.0929 0.217549,-0.2993 0.124658,-0.46102 -0.08738,-0.16386 -0.296075,-0.20571 -0.461686,-0.1247 z m -12.9747634,0.36869 c -0.1865005,7.4e-4 -0.3371007,0.15251 -0.3363719,0.33902 3.382e-4,0.18573 0.150641,0.33629 0.3363719,0.33702 0.1867608,7.4e-4 0.3386476,-0.15027 0.3390126,-0.33702 6.752e-4,-0.18754 -0.1514783,-0.33976 -0.3390126,-0.33902 z m 1.3085574,0 c -0.1865005,7.4e-4 -0.337102,0.15251 -0.3363719,0.33902 3.369e-4,0.18573 0.1506411,0.33629 0.3363719,0.33702 h 0.7182534 c 0.1857308,-7e-4 0.3360137,-0.15129 0.3363761,-0.33702 6.752e-4,-0.18651 -0.1498718,-0.33829 -0.3363761,-0.33902 z m 2.069022,0 c -0.187533,-7.4e-4 -0.339742,0.15148 -0.339009,0.33902 3.38e-4,0.18675 0.152252,0.33775 0.339009,0.33702 0.185987,-3.7e-4 0.336673,-0.15104 0.337034,-0.33702 6.75e-4,-0.18676 -0.150274,-0.33866 -0.337034,-0.33902 z m 1.35143,0 c -0.187533,-7.4e-4 -0.339746,0.15148 -0.339013,0.33902 3.38e-4,0.18675 0.152253,0.33775 0.339013,0.33702 0.185731,-7.4e-4 0.33601,-0.15129 0.336372,-0.33702 6.75e-4,-0.18651 -0.149872,-0.33829 -0.336372,-0.33902 z m 6.064605,0.69584 c 0.184248,0.0357 0.312051,0.14038 0.426731,0.339 0.11469,0.19862 0.140977,0.36075 0.07981,0.5382 -0.04516,0.13099 -0.156314,0.29049 -0.380561,0.46301 l -0.716938,-1.24195 c 0.200869,-0.0956 0.37027,-0.12393 0.590961,-0.0983 z m -3.076161,0.0179 c 0.676953,1.17197 1.353057,2.34444 2.029448,3.51673 l -3.427706,0.6035 -0.234143,-0.40628 -0.605472,-1.05001 z m 5.4499,0.51775 c -0.185987,3.7e-4 -0.336673,0.15104 -0.337034,0.33702 6.75e-4,0.18573 0.151303,0.33602 0.337034,0.33637 h 0.717595 c 0.185474,-7e-4 0.33565,-0.15089 0.336372,-0.33637 -3.38e-4,-0.18573 -0.150641,-0.3363 -0.336372,-0.33702 z m -13.5888097,0.11999 c -0.1875343,-7.4e-4 -0.3397414,0.15147 -0.3390088,0.339 6.752e-4,0.18651 0.1525084,0.33712 0.3390088,0.33638 h 2.8697238 c 0.1865039,7.5e-4 0.3382859,-0.14987 0.3390129,-0.33638 6.75e-4,-0.18753 -0.151479,-0.33974 -0.3390129,-0.339 z m 5.3667987,2.45354 0.369351,0.64043 0.368692,0.64043 c -0.320281,0.18314 -0.63187,0.36486 -0.94976,0.54809 -0.185204,0.10695 -0.414119,0.0453 -0.521048,-0.13983 l -0.358798,-0.62064 c -0.106943,-0.18522 -0.04541,-0.4141 0.139825,-0.52105 z m -4.9275327,2.3223 c -0.2428243,-0.24254 -0.6449444,-0.24257 -0.887761,0 l -0.3614362,0.36142 c -0.042706,0.0428 -0.072214,0.0389 -0.1121244,0.0225 -0.039923,-0.0166 -0.064633,-0.0365 -0.064633,-0.097 v -0.51116 c 0,-0.3433 -0.2852414,-0.62789 -0.6285552,-0.62789 H 4.4869209 c -0.3434912,0 -0.6278954,0.28457 -0.6278954,0.62789 v 0.51116 c 0,0.0604 -0.024722,0.0804 -0.064633,0.097 -0.03991,0.0165 -0.069419,0.0203 -0.1121244,-0.0225 L 3.3208332,288.883 c -0.2428243,-0.24254 -0.6449406,-0.24255 -0.8877623,0 -0.00101,-2e-5 -0.00166,-2e-5 -0.00268,0 l -0.6081086,0.60876 c -0.2430668,0.24279 -0.2428485,0.6469 0,0.88975 l 0.3614349,0.36142 c 0.042718,0.0428 0.038966,0.0722 0.022425,0.11219 -0.016541,0.04 -0.033924,0.0647 -0.09432,0.0647 H 1.600673 c -0.3435103,-1.8e-4 -0.63053468,0.28503 -0.63053468,0.62837 v 0.86204 c 0,0.3433 0.28722348,0.62856 0.63053468,0.62856 h 0.5111545 c 0.060408,10e-6 0.077792,0.0248 0.09432,0.0646 0.016516,0.0399 0.020255,0.0694 -0.022425,0.11219 l -0.361435,0.36144 c -0.2430578,0.24278 -0.2428613,0.64492 0,0.88775 l 0.6081086,0.61076 c 3.382e-4,0 0.00101,0 0.0014,0 3.382e-4,0 0.00101,0 0.0014,0 0.2428243,0.24255 0.6449444,0.24256 0.8877623,0 l 0.3614349,-0.36144 c 0.042706,-0.0428 0.072201,-0.0389 0.1121244,-0.0225 0.039923,0.0166 0.064633,0.034 0.064633,0.0943 v 0.51116 c 0,0.3433 0.2846007,0.62856 0.6278953,0.62856 h 0.8626929 c 0.343315,0 0.6285564,-0.28526 0.6285564,-0.62856 v -0.51116 c 0,-0.0604 0.024722,-0.0777 0.064633,-0.0943 0.03991,-0.0166 0.069406,-0.0203 0.1121244,0.0225 l 0.3614349,0.36144 c 0.2428205,0.24255 0.6449444,0.24256 0.8877623,0 6.752e-4,0 0.0014,0 0.00204,0 l 0.6081086,-0.61076 c 0.2430579,-0.24278 0.2428651,-0.64492 0,-0.88775 l -0.3614426,-0.36146 c -0.042706,-0.0428 -0.038953,-0.0722 -0.022425,-0.11218 0.016516,-0.0399 0.034563,-0.0646 0.094971,-0.0646 h 0.5111545 c 0.3433151,0 0.6305361,-0.28525 0.6305361,-0.62856 v -0.86203 c 0,-0.34332 -0.2872044,-0.62855 -0.6305361,-0.62855 H 7.7255111 c -0.060408,0 -0.078442,-0.0248 -0.094971,-0.0647 -0.016541,-0.04 -0.020332,-0.0694 0.022425,-0.11219 l 0.3614388,-0.36142 c 0.2430668,-0.2428 0.2428511,-0.64691 0,-0.88975 l -0.6081086,-0.60862 h -0.00101 z m 9.6690727,-0.38585 c -0.186503,7.4e-4 -0.337105,0.15251 -0.336375,0.33902 v 3.20807 H 9.7495055 c -0.1854746,7.2e-4 -0.3356537,0.1509 -0.3363761,0.33637 -6.752e-4,0.18651 0.1498715,0.33829 0.3363761,0.33902 h 6.9873205 v 0.33637 c 0,0.9365 -0.751287,1.68779 -1.687798,1.6878 H 8.7377449 c -0.1867595,3.7e-4 -0.3377593,0.15225 -0.3370292,0.33901 6.752e-4,0.18572 0.1512996,0.33601 0.3370292,0.33637 h 6.3112831 c 1.301509,-10e-6 2.363183,-1.06167 2.363183,-2.36318 v -4.21983 c 6.75e-4,-0.18753 -0.151476,-0.33974 -0.33901,-0.33902 z m -12.5387961,0.20909 h 0.7677222 v 0.46366 c -2.5e-6,0.33259 0.2143408,0.60958 0.4814751,0.72024 0.2671317,0.11065 0.6123408,0.0656 0.8475264,-0.16951 l 0.3291173,-0.32912 0.5434746,0.54348 -0.3291173,0.32911 c -0.2351587,0.2352 -0.2775222,0.58302 -0.1668681,0.85017 0.1106566,0.26714 0.3850072,0.48147 0.7175961,0.48147 h 0.466306 v 0.76772 h -0.466306 c -0.3325864,1e-5 -0.6069472,0.21368 -0.7175961,0.48081 -0.1106567,0.26714 -0.068308,0.61237 0.1668681,0.84754 l 0.3291173,0.32911 -0.5434746,0.54348 -0.3291173,-0.32912 c -0.2351766,-0.23517 -0.5803922,-0.27751 -0.8475264,-0.16687 -0.2671343,0.11066 -0.4814713,0.38502 -0.4814751,0.7176 v 0.4663 H 4.5344049 v -0.4663 c -6.3e-6,-0.33258 -0.2136847,-0.60694 -0.4808164,-0.7176 -0.2671279,-0.11065 -0.6149841,-0.0683 -0.8501658,0.16687 l -0.3264779,0.32912 -0.5434747,-0.54348 0.3264805,-0.32911 c 0.2351753,-0.23517 0.2801565,-0.5804 0.169505,-0.84754 -0.1106567,-0.26713 -0.3850098,-0.4808 -0.7175961,-0.48081 H 1.6455547 v -0.76772 h 0.4663048 c 0.3326003,0 0.6069446,-0.21433 0.7175961,-0.48147 0.1106566,-0.26714 0.065679,-0.61498 -0.169505,-0.85017 l -0.3264805,-0.32648 0.5434747,-0.54611 0.3264779,0.32912 c 0.2351855,0.23516 0.5830315,0.28016 0.8501658,0.16951 0.2671356,-0.11066 0.4808164,-0.38765 0.4808164,-0.72024 z m -0.538197,2.27876 v 1.98922 c -1.251e-4,0.26104 0.2833103,0.42353 0.5085176,0.29152 l 1.7227552,-0.99461 c 0.225991,-0.12983 0.225991,-0.45586 0,-0.58569 l -1.7227552,-0.99461 c -0.222148,-0.12856 -0.5248315,-0.0758 -0.5085176,0.29417 z m 0.6753845,0.58305 0.710339,0.41156 -0.710339,0.4109 z m 6.0923056,1.82498 c -0.187533,-7.4e-4 -0.339742,0.15148 -0.339009,0.33901 6.75e-4,0.1865 0.152508,0.3371 0.339009,0.33637 h 1.35143 c 0.185474,-7.1e-4 0.335649,-0.15089 0.336372,-0.33637 6.75e-4,-0.18651 -0.149872,-0.33829 -0.336372,-0.33901 z m 2.702199,0 c -0.187534,-7.4e-4 -0.339745,0.15148 -0.339012,0.33901 6.75e-4,0.18651 0.152508,0.3371 0.339012,0.33637 h 0.676042 c 0.185474,-7.1e-4 0.33565,-0.15089 0.336372,-0.33637 6.75e-4,-0.18651 -0.149872,-0.33829 -0.336372,-0.33901 z"
       sodipodi:nodetypes="csccccsccssccssccscsccscccsccsccccccccccccccccccccccccccccccscccccccccccccccccccccsssccscsccscccsccsccccccccccccccccccccccccscccccscscsccssccsscccsccccscscccscscscccccccccsscccsssscssccccsssssssscsscccsccsssssssssccccccsscsssssscccccccccccccsccsccscsccccccccsscccssccsssccssccccscccssscccssccccccccccccccccsccsccscccccsc" />
  </g>
</svg>
